<?xml version="1.0" encoding="UTF-8"?><!DOCTYPE svg PUBLIC "-//W3C//DTD SVG 1.1//EN" "http://www.w3.org/Graphics/SVG/1.1/DTD/svg11.dtd"><svg xmlns="http://www.w3.org/2000/svg" version="1.1" width="128px" height="128px" style="shape-rendering:geometricPrecision; text-rendering:geometricPrecision; image-rendering:optimizeQuality; fill-rule:evenodd; clip-rule:evenodd" xmlns:xlink="http://www.w3.org/1999/xlink"><g><path style="opacity:1" fill="#fefffe" d="M 55.5,23.5 C 60.8333,23.5 66.1667,23.5 71.5,23.5C 71.5,26.1667 71.5,28.8333 71.5,31.5C 74.1667,31.5 76.8333,31.5 79.5,31.5C 79.5,34.1667 79.5,36.8333 79.5,39.5C 82.1667,39.5 84.8333,39.5 87.5,39.5C 87.5,42.1667 87.5,44.8333 87.5,47.5C 90.1667,47.5 92.8333,47.5 95.5,47.5C 95.5,50.1667 95.5,52.8333 95.5,55.5C 98.1667,55.5 100.833,55.5 103.5,55.5C 103.5,60.8333 103.5,66.1667 103.5,71.5C 100.833,71.5 98.1667,71.5 95.5,71.5C 95.5,74.1667 95.5,76.8333 95.5,79.5C 92.8333,79.5 90.1667,79.5 87.5,79.5C 87.5,82.1667 87.5,84.8333 87.5,87.5C 84.8333,87.5 82.1667,87.5 79.5,87.5C 79.5,90.1667 79.5,92.8333 79.5,95.5C 76.8333,95.5 74.1667,95.5 71.5,95.5C 71.5,98.1667 71.5,100.833 71.5,103.5C 66.1667,103.5 60.8333,103.5 55.5,103.5C 55.5,100.833 55.5,98.1667 55.5,95.5C 52.8333,95.5 50.1667,95.5 47.5,95.5C 47.5,92.8333 47.5,90.1667 47.5,87.5C 44.8333,87.5 42.1667,87.5 39.5,87.5C 39.5,84.8333 39.5,82.1667 39.5,79.5C 36.8333,79.5 34.1667,79.5 31.5,79.5C 31.5,76.8333 31.5,74.1667 31.5,71.5C 28.8333,71.5 26.1667,71.5 23.5,71.5C 23.5,66.1667 23.5,60.8333 23.5,55.5C 26.1667,55.5 28.8333,55.5 31.5,55.5C 31.5,52.8333 31.5,50.1667 31.5,47.5C 34.1667,47.5 36.8333,47.5 39.5,47.5C 39.5,44.8333 39.5,42.1667 39.5,39.5C 42.1667,39.5 44.8333,39.5 47.5,39.5C 47.5,36.8333 47.5,34.1667 47.5,31.5C 50.1667,31.5 52.8333,31.5 55.5,31.5C 55.5,28.8333 55.5,26.1667 55.5,23.5 Z"/></g></svg>